:SAMPLES-PER-SECOND 30
:FULLY-SPECIFIED
:DEGREES
124
root  -13.6876 36.9309 10.1989 -4.32076 -83.1373 -1.16309
RightUpLeg  -28.0955 -8.64578 2.18727
RightLeg  27.3247 -0.770864 -0.667203
RightFoot  4.10521 0.618288 -4.36842
RightToes  3.49245e-010 0 -3.6325e-017
Spine  12.1051 -3.67275 8.09864
Spine1  9.22114 -2.6643 -1.01505
HEad  -14.148 -3.69966 -4.9277
LeftShoulder1  -0.508128 4.79311 -33.2381
LeftArm  7.10967 -2.64341 -46.6058
LeftForeArm  23.1276 -34.5109 -6.36538
LeftHand  -0.0573774 4.68586 6.20778
RightShoulder  -0.787731 -5.64614 30.109
RightArm  8.32252 -12.3282 41.9359
RightForeArm  13.2616 4.00474 4.75546
RightHand  -0.390603 4.53045 -4.8427
LeftUpLeg  19.5503 6.61299 4.22572
LeftLeg  29.5741 -2.50009 -1.2082
LeftFoot  -20.6696 -0.852971 -12.3568
LeftToes  -2.21735e-009 9.83027e-011 -4.04511e-011
125
root  -15.1099 36.8532 10.1805 5.12723 -83.1608 -10.5253
RightUpLeg  -28.028 -8.89205 3.55503
RightLeg  31.5273 -0.888021 -0.839593
RightFoot  0.454056 0.537471 -5.14061
RightToes  3.49245e-010 0 -3.6325e-017
Spine  12.828 -3.85326 9.55484
Spine1  8.9054 -2.64572 -0.0413281
HEad  -13.6017 -3.01772 -4.82669
LeftShoulder1  -0.335814 4.37399 -32.4471
LeftArm  7.16685 -1.45576 -48.1469
LeftForeArm  22.8688 -34.081 -6.2689
LeftHand  -0.0964121 3.97156 6.62142
RightShoulder  -0.696089 -5.42807 29.49
RightArm  8.0379 -10.5987 42.421
RightForeArm  12.6277 4.15837 4.73176
RightHand  -0.367045 4.50275 -4.57868
LeftUpLeg  14.6068 6.12303 6.11932
LeftLeg  40.7322 -2.03231 -1.37484
LeftFoot  -10.8048 0.0895624 -15.0394
LeftToes  -2.21735e-009 9.83027e-011 -4.04511e-011
126
root  -16.3852 36.8532 10.1524 14.0589 -82.2565 -18.9982
RightUpLeg  -27.5969 -9.27864 4.86491
RightLeg  34.0429 -1.32552 -1.22685
RightFoot  -2.86804 0.363067 -5.15535
RightToes  3.49245e-010 0 -3.6325e-017
Spine  13.0226 -4.25137 11.108
Spine1  8.74037 -2.84602 0.633259
HEad  -13.4126 -3.31414 -4.04139
LeftShoulder1  -0.244806 4.14721 -31.9508
LeftArm  8.24651 -1.76751 -49.4165
LeftForeArm  22.5624 -33.829 -6.22172
LeftHand  -0.0332273 5.16805 6.18708
RightShoulder  -0.709281 -5.46123 29.5522
RightArm  7.96323 -8.08747 42.5721
RightForeArm  10.6145 6.14888 4.85741
RightHand  -0.493903 4.55025 -6.05128
LeftUpLeg  6.68572 4.35883 6.94305
LeftLeg  53.1199 0.23317 0.801539
LeftFoot  3.74345 1.38713 -11.0602
LeftToes  -2.21735e-009 9.83027e-011 -4.04511e-011
127
root  -17.5954 36.9268 10.1366 20.542 -82.092 -25.838
RightUpLeg  -25.8258 -8.935 5.79165
RightLeg  35.5376 -1.60647 -1.50564
RightFoot  -5.50597 0.224804 -5.12988
RightToes  3.49245e-010 0 -3.6325e-017
Spine  13.5941 -4.226 12.3462
Spine1  9.38665 -2.54122 1.17489
HEad  -13.5331 -3.93816 -3.59875
LeftShoulder1  -0.223877 4.08576 -32.3315
LeftArm  9.28344 -3.39058 -50.0896
LeftForeArm  23.3101 -34.1382 -6.25742
LeftHand  -0.0543062 4.6946 5.65014
RightShoulder  -0.655944 -5.33353 29.1267
RightArm  7.94729 -5.4695 42.9155
RightForeArm  8.33164 10.181 4.83568
RightHand  -0.479403 4.78479 -5.76651
LeftUpLeg  0.30917 3.35466 7.37538
LeftLeg  62.339 0.705895 1.97791
LeftFoot  10.5474 1.00048 -5.24135
LeftToes  -2.21735e-009 9.83027e-011 -4.04511e-011
128
root  -18.8761 37.2427 10.1195 20.8842 -82.4567 -26.6665
RightUpLeg  -22.7489 -8.56795 5.665
RightLeg  35.2336 -1.6564 -1.53134
RightFoot  -7.57413 0.111323 -4.92614
RightToes  3.49245e-010 0 -3.6325e-017
Spine  14.1332 -4.12823 12.507
Spine1  9.4541 -2.27682 0.918204
HEad  -12.9748 -4.44858 -2.64037
LeftShoulder1  -0.193205 4.00801 -32.192
LeftArm  9.63074 -4.65888 -50.7057
LeftForeArm  23.4908 -35.0451 -6.48628
LeftHand  -0.0757124 4.31875 6.28779
RightShoulder  -0.546573 -5.05271 28.4805
RightArm  8.51054 -2.93309 43.7694
RightForeArm  5.86716 15.13 4.44389
RightHand  -0.529917 5.89814 -5.76311
LeftUpLeg  -5.15328 2.58778 6.90009
LeftLeg  68.182 -0.169502 0.292316
LeftFoot  5.59239 0.673068 -4.79677
LeftToes  -2.21735e-009 9.83027e-011 -4.04511e-011
129
root  -20.1411 37.5634 10.1396 20.3305 -82.8285 -26.1441
RightUpLeg  -19.9636 -8.54579 5.34853
RightLeg  34.4463 -1.51687 -1.39247
RightFoot  -9.4012 0.0160819 -4.72685
RightToes  3.49245e-010 0 -3.6325e-017
Spine  14.388 -4.12567 12.7108
Spine1  8.7461 -2.11293 0.429742
HEad  -11.9975 -4.10886 -3.10515
LeftShoulder1  -0.206356 4.0401 -32.3405
LeftArm  8.93702 -5.13812 -50.781
LeftForeArm  24.1551 -36.6916 -6.88678
LeftHand  -0.0912096 4.12176 6.87273
RightShoulder  -0.482768 -4.89781 27.7746
RightArm  8.76697 -0.484041 44.5019
RightForeArm  5.13121 20.7161 4.38812
RightHand  -0.570109 5.86724 -6.19346
LeftUpLeg  -10.759 1.60615 6.09419
LeftLeg  70.6478 -0.883255 -1.92063
LeftFoot  3.71166 0.691254 -5.38321
LeftToes  -2.21735e-009 9.83027e-011 -4.04511e-011
130
root  -21.4537 37.8942 10.1664 24.5142 -83.9727 -30.4455
RightUpLeg  -16.7267 -7.87301 5.26696
RightLeg  33.0099 -1.1273 -1.05633
RightFoot  -10.9127 -0.055754 -4.74572
RightToes  3.49245e-010 0 -3.6325e-017
Spine  13.9728 -3.71489 13.5671
Spine1  8.83872 -1.31301 -0.911677
HEad  -11.0765 -4.85255 -3.14031
LeftShoulder1  -0.13874 3.8692 -31.8508
LeftArm  7.91338 -5.63966 -51.0923
LeftForeArm  24.4785 -38.3089 -7.33465
LeftHand  -0.112589 3.72225 6.83226
RightShoulder  -0.469376 -4.877 27.3006
RightArm  7.09471 1.97353 44.9833
RightForeArm  7.27318 26.7459 5.34253
RightHand  -0.552451 5.76567 -6.0729
LeftUpLeg  -15.2729 1.56598 5.56593
LeftLeg  69.8646 -1.35677 -3.26418
LeftFoot  2.39546 0.502037 -4.29394
LeftToes  -2.21735e-009 9.83027e-011 -4.04511e-011
131
root  -22.7835 38.2432 10.1633 27.9471 -85.0802 -33.8877
RightUpLeg  -13.3705 -7.38743 4.95551
RightLeg  31.0891 -0.62731 -0.673015
RightFoot  -12.1408 -0.113448 -4.5392
RightToes  3.49245e-010 0 -3.6325e-017
Spine  13.7253 -3.27148 13.5248
Spine1  8.37505 -0.823188 -1.6233
HEad  -10.3305 -3.97913 -4.01381
LeftShoulder1  -0.132509 3.85272 -31.7298
LeftArm  6.51375 -5.48873 -50.6568
LeftForeArm  25.4086 -41.4708 -8.22115
LeftHand  -0.080366 4.33005 6.87181
RightShoulder  -0.424403 -4.75413 27.0068
RightArm  5.9524 4.49011 45.066
RightForeArm  8.69515 33.0459 6.83693
RightHand  -0.612479 5.41972 -6.84594
LeftUpLeg  -18.9001 1.61931 5.16216
LeftLeg  65.9377 -1.96941 -4.1886
LeftFoot  -0.0728231 0.421992 -4.28078
LeftToes  -2.21735e-009 9.83027e-011 -4.04511e-011
